# xmcd
#
# Track frame offsets:
#	150
#	17033
#	34800
#	48470
#	61438
#	75503
#	93964
#	110906
#	126648
#	139296
#	154440
#	167377
#	182166
#	195171
#	204761
#	216362
#	228996
#	243418
#
# Disc length: 3435 seconds
#
# Revision: 0
# Processed by: cddbd v1.4PL0 Copyright (c) Steve Scherf et al.
# Submitted via: dBpowerAMP V4.0
#
DISCID=fb0d6912
DTITLE=John McSweeny - The Great [CD1]
DYEAR=2002
DGENRE=Country
TTITLE0=Old Pair Of Shoes
TTITLE1=Danny Boy
TTITLE2=My Shoes Keep Walking Back To You
TTITLE3=Blue Velvet Band
TTITLE4=She's Gone
TTITLE5=Working Man
TTITLE6=Born To Love You
TTITLE7=Everybody Needs A Dream Girl
TTITLE8=Saturday Dance
TTITLE9=We'll Have Roses In The Winter
TTITLE10=Could I Have This Dance
TTITLE11=Save Your Heart For Me
TTITLE12=Remember You're Mine
TTITLE13=Proud Of You
TTITLE14=Careless Hands
TTITLE15=You're My Best Friend
TTITLE16=Lay Down Beside Me
TTITLE17=Blue Eyes Crying In The Rain
EXTD=
EXTT0=
EXTT1=
EXTT2=
EXTT3=
EXTT4=
EXTT5=
EXTT6=
EXTT7=
EXTT8=
EXTT9=
EXTT10=
EXTT11=
EXTT12=
EXTT13=
EXTT14=
EXTT15=
EXTT16=
EXTT17=
PLAYORDER=
